<svg xmlns="http://www.w3.org/2000/svg" width="40" height="40" viewBox="0 0 40 40">
  <g id="冠軍賽圖標" transform="translate(-581 -555.621)">
    <rect id="Rectangle_3856" data-name="Rectangle 3856" width="40" height="40" transform="translate(581 555.621)" fill="none"/>
    <g id="Group_3742" data-name="Group 3742" transform="translate(584 560.621)">
      <path id="Path_110943" data-name="Path 110943" d="M42.554,76.572a4.971,4.971,0,0,1-4.216-3.666H33.991a4.97,4.97,0,0,1-4.218,3.667.659.659,0,0,0-.583.654v1.024a.329.329,0,0,0,.33.33H42.807a.33.33,0,0,0,.33-.33V77.227a.659.659,0,0,0-.583-.654" transform="translate(-19.663 -48.581)" fill="#ff8b17"/>
      <path id="Path_110944" data-name="Path 110944" d="M28.143,22.058h4.024c.215-2.853,1.751-4.144,3.712-7.385,2.359-3.166,3.929-8.236,4.059-14A.663.663,0,0,0,39.752.2a.65.65,0,0,0-.467-.2H21.023a.649.649,0,0,0-.467.2.663.663,0,0,0-.186.476c.13,5.772,1.705,10.849,4.071,14.014,1.956,3.229,3.488,4.522,3.7,7.37" transform="translate(-13.654 0)" fill="#ff8b17"/>
      <path id="Path_110945" data-name="Path 110945" d="M22.815,59.252a5.091,5.091,0,0,0-1.038-3.121,5.093,5.093,0,0,0-2.927-1.5.112.112,0,0,0-.133.114,5.215,5.215,0,0,0,.92,2.971c.044.058.023.1-.049.1a5.221,5.221,0,0,0-2.94,1.014.113.113,0,0,0-.013.174,5.1,5.1,0,0,0,2.943,1.473,5.078,5.078,0,0,0,3.129-1.009.3.3,0,0,0,.107-.213" transform="translate(-11.167 -36.4)" fill="#ff8b17"/>
      <path id="Path_110946" data-name="Path 110946" d="M9.875,48.373a4.726,4.726,0,0,0,.232-3.037A4.725,4.725,0,0,0,8.151,43a.111.111,0,0,0-.166.053A4.85,4.85,0,0,0,7.7,45.911c.019.071-.017.1-.084.071a4.838,4.838,0,0,0-2.863-.19.111.111,0,0,0-.08.155A4.723,4.723,0,0,0,6.662,48.26a4.725,4.725,0,0,0,3.033.267.289.289,0,0,0,.18-.154" transform="translate(-3.129 -28.641)" fill="#ff8b17"/>
      <path id="Path_110947" data-name="Path 110947" d="M3.475,35.3a4.133,4.133,0,0,0,1.144-2.39A4.121,4.121,0,0,0,3.778,30.4a.11.11,0,0,0-.173-.01A4.238,4.238,0,0,0,2.48,32.6c-.009.072-.053.087-.1.036a4.235,4.235,0,0,0-2.246-1.05A.11.11,0,0,0,0,31.7a4.122,4.122,0,0,0,.882,2.5,4.117,4.117,0,0,0,2.371,1.18.287.287,0,0,0,.223-.077" transform="translate(0 -20.23)" fill="#ff8b17"/>
      <path id="Path_110948" data-name="Path 110948" d="M2.207,21.652a.285.285,0,0,0,.236,0,3.63,3.63,0,0,0,1.642-1.64,3.63,3.63,0,0,0,.05-2.318.11.11,0,0,0-.159-.068A3.738,3.738,0,0,0,2.408,19.11c-.033.065-.079.064-.111,0A3.735,3.735,0,0,0,.764,17.595a.11.11,0,0,0-.161.065,3.621,3.621,0,0,0,0,2.319,3.621,3.621,0,0,0,1.606,1.673" transform="translate(-0.272 -11.719)" fill="#ff8b17"/>
      <path id="Path_110949" data-name="Path 110949" d="M7.141,7.675A3.2,3.2,0,0,0,8.547,6.19a3.2,3.2,0,0,0,0-2.044.109.109,0,0,0-.16-.064A3.207,3.207,0,0,0,6.975,5.568a3.211,3.211,0,0,0,.006,2.043.109.109,0,0,0,.16.064" transform="translate(-4.563 -2.727)" fill="#ff8b17"/>
      <path id="Path_110950" data-name="Path 110950" d="M68.326,57.916c-.073,0-.094-.041-.049-.1a5.22,5.22,0,0,0,.932-2.968.111.111,0,0,0-.132-.114,4.35,4.35,0,0,0-3.984,4.607.3.3,0,0,0,.106.213,4.348,4.348,0,0,0,6.074-.44.112.112,0,0,0-.013-.174,5.218,5.218,0,0,0-2.935-1.025" transform="translate(-43.787 -36.47)" fill="#ff8b17"/>
      <path id="Path_110951" data-name="Path 110951" d="M84.462,45.946a4.837,4.837,0,0,0-2.864.178c-.067.029-.1,0-.083-.072a4.833,4.833,0,0,0-.271-2.858.111.111,0,0,0-.165-.054,4.726,4.726,0,0,0-1.965,2.327,4.73,4.73,0,0,0,.22,3.036.3.3,0,0,0,.18.155A4.034,4.034,0,0,0,84.54,46.1a.11.11,0,0,0-.078-.155" transform="translate(-53.112 -28.734)" fill="#ff8b17"/>
      <path id="Path_110952" data-name="Path 110952" d="M91.139,31.755A4.236,4.236,0,0,0,88.89,32.8c-.052.051-.1.036-.105-.037a4.234,4.234,0,0,0-1.116-2.214.111.111,0,0,0-.173.01,4.13,4.13,0,0,0-.851,2.509,4.124,4.124,0,0,0,1.135,2.393.291.291,0,0,0,.223.079,4.118,4.118,0,0,0,2.375-1.171,4.123,4.123,0,0,0,.891-2.5.111.111,0,0,0-.13-.115" transform="translate(-58.269 -20.333)" fill="#ff8b17"/>
      <path id="Path_110953" data-name="Path 110953" d="M88.837,17.809a.11.11,0,0,0-.16.067,3.631,3.631,0,0,0,.04,2.318,3.625,3.625,0,0,0,1.636,1.645.286.286,0,0,0,.235,0A3.614,3.614,0,0,0,92.2,20.172a3.622,3.622,0,0,0,.007-2.319.11.11,0,0,0-.16-.066,3.733,3.733,0,0,0-1.54,1.509c-.032.065-.078.066-.112,0a3.725,3.725,0,0,0-1.56-1.487" transform="translate(-59.518 -11.847)" fill="#ff8b17"/>
      <path id="Path_110954" data-name="Path 110954" d="M89.753,7.832a.11.11,0,0,0,.161-.063,3.21,3.21,0,0,0,.014-2.043,3.205,3.205,0,0,0-1.4-1.49.109.109,0,0,0-.16.063,3.2,3.2,0,0,0-.013,2.044,3.2,3.2,0,0,0,1.4,1.49" transform="translate(-59.307 -2.829)" fill="#ff8b17"/>
      <path id="Path_110955" data-name="Path 110955" d="M.034,2.543l2.26-.434a.157.157,0,0,0,.1-.07L3.5.023c.018-.031.046-.031.064,0L4.676,2.04a.164.164,0,0,0,.1.07l2.26.434c.036.006.044.034.02.061L5.479,4.283a.159.159,0,0,0-.038.113L5.728,6.68c0,.036-.018.053-.051.037L3.593,5.74a.16.16,0,0,0-.12,0L1.39,6.718c-.033.015-.056,0-.051-.037L1.624,4.4a.159.159,0,0,0-.037-.113L.014,2.6C-.011,2.577,0,2.55.034,2.543" transform="translate(12.967 4.306)" fill="#fff"/>
    </g>
  </g>
</svg>
