<svg id="clear_black_50dp" xmlns="http://www.w3.org/2000/svg" width="50" height="50" viewBox="0 0 50 50">
  <path id="Path_98841" data-name="Path 98841" d="M0,0H50V50H0Z" fill="none"/>
  <path id="Path_98842" data-name="Path 98842" d="M31.809,6.027a2.039,2.039,0,0,0-2.887,0L18.908,16.02,8.894,6.006A2.042,2.042,0,0,0,6.006,8.894L16.02,18.908,6.006,28.921a2.042,2.042,0,1,0,2.887,2.887L18.908,21.795,28.921,31.809a2.042,2.042,0,1,0,2.887-2.887L21.795,18.908,31.809,8.894A2.052,2.052,0,0,0,31.809,6.027Z" transform="translate(5.913 5.913)" fill="#fff"/>
</svg>
