<svg id="clear_black_50dp" xmlns="http://www.w3.org/2000/svg" width="50" height="50" viewBox="0 0 50 50">
  <path id="Path_98841" data-name="Path 98841" d="M0,0H50V50H0Z" fill="none"/>
  <g id="Path_98842" data-name="Path 98842" transform="translate(5.913 5.913)" fill="#fff">
    <path d="M 30.36484909057617 32.65750122070312 C 29.75334930419922 32.65750122070312 29.17786026000977 32.41877746582031 28.7443790435791 31.98530960083008 L 18.90749931335449 22.14843940734863 L 9.070629119873047 31.98530960083008 C 8.637148857116699 32.41877746582031 8.06165885925293 32.65750122070312 7.450169086456299 32.65750122070312 C 6.838669300079346 32.65750122070312 6.263179302215576 32.41877746582031 5.829699516296387 31.98530960083008 C 5.396229267120361 31.55183982849121 5.157499313354492 30.97633934020996 5.157499313354492 30.36484909057617 C 5.157499313354492 29.75334930419922 5.396229267120361 29.17784881591797 5.829699516296387 28.7443790435791 L 15.66656970977783 18.90749931335449 L 5.829699516296387 9.070629119873047 C 5.396229267120361 8.63715934753418 5.157499313354492 8.06165885925293 5.157499313354492 7.450169086456299 C 5.157499313354492 6.838669300079346 5.396229267120361 6.263169288635254 5.829699516296387 5.829699516296387 C 6.263169288635254 5.396229267120361 6.838669300079346 5.157499313354492 7.450169086456299 5.157499313354492 C 8.06165885925293 5.157499313354492 8.63715934753418 5.396229267120361 9.070629119873047 5.829699516296387 L 18.90768051147461 15.66674995422363 L 28.74456024169922 5.84999942779541 C 29.17784881591797 5.416709423065186 29.75334930419922 5.177979469299316 30.36484909057617 5.177979469299316 C 30.97633934020996 5.177979469299316 31.55183982849121 5.416709423065186 31.98530960083008 5.850179195404053 C 32.40887832641602 6.273749351501465 32.64215087890625 6.845599174499512 32.64215087890625 7.460399150848389 C 32.64215087890625 8.075199127197266 32.40887832641602 8.647048950195312 31.98530960083008 9.070629119873047 L 22.14843940734863 18.90749931335449 L 31.98530960083008 28.7443790435791 C 32.87882995605469 29.63790893554688 32.87882995605469 31.0917797088623 31.98530960083008 31.98530960083008 C 31.55182838439941 32.41877746582031 30.97633934020996 32.65750122070312 30.36484909057617 32.65750122070312 Z" stroke="none"/>
    <path d="M 7.450160980224609 5.407497406005859 C 6.927976608276367 5.407497406005859 6.405794143676758 5.607158660888672 6.006479263305664 6.006479263305664 C 5.207839965820312 6.805109024047852 5.207839965820312 8.095209121704102 6.006479263305664 8.893848419189453 L 16.0201301574707 18.90749931335449 L 6.006479263305664 28.9211597442627 C 5.207839965820312 29.71978950500488 5.207839965820312 31.0098991394043 6.006479263305664 31.80852890014648 C 6.805105209350586 32.60715866088867 8.095207214355469 32.60716247558594 8.893848419189453 31.80852890014648 L 18.90749931335449 21.79487991333008 L 28.9211597442627 31.80852890014648 C 29.71978950500488 32.60715866088867 31.0098991394043 32.60715866088867 31.80852890014648 31.80852890014648 C 32.60715866088867 31.0098991394043 32.60715866088867 29.71978950500488 31.80852890014648 28.9211597442627 L 21.79487991333008 18.90749931335449 L 31.80852890014648 8.893848419189453 C 32.58668899536133 8.115690231323242 32.58668899536133 6.805109024047852 31.80852890014648 6.026948928833008 C 31.0098991394043 5.228321075439453 29.71978950500488 5.228321075439453 28.9211597442627 6.026948928833008 L 18.90749931335449 16.0201301574707 L 8.893848419189453 6.006479263305664 C 8.494529724121094 5.607158660888672 7.972343444824219 5.407497406005859 7.450160980224609 5.407497406005859 M 7.450159072875977 4.907497406005859 C 8.128429412841797 4.907497406005859 8.766708374023438 5.172229766845703 9.247398376464844 5.652931213378906 L 18.90785598754883 15.31338500976562 L 28.56797027587891 5.673030853271484 C 29.04827880859375 5.192710876464844 29.68655014038086 4.927978515625 30.36483955383301 4.927978515625 C 31.04311943054199 4.927978515625 31.68138885498047 5.192710876464844 32.16207885742188 5.67340087890625 C 33.1307373046875 6.642049789428711 33.1307373046875 8.278749465942383 32.16207885742188 9.247398376464844 L 22.50197982788086 18.90749931335449 L 32.16207885742188 28.5676097869873 C 33.15307998657227 29.55860900878906 33.15307998657227 31.17107963562012 32.16207885742188 32.16207885742188 C 31.6813793182373 32.64276885986328 31.04310989379883 32.90750122070312 30.36483955383301 32.90750122070312 C 29.68656921386719 32.90750122070312 29.04829978942871 32.64276885986328 28.5676097869873 32.16207885742188 L 18.90749931335449 22.50197982788086 L 9.247398376464844 32.16207885742188 C 8.766698837280273 32.64276885986328 8.128429412841797 32.90750122070312 7.450159072875977 32.90750122070312 C 6.771888732910156 32.90750122070312 6.13361930847168 32.64276885986328 5.652931213378906 32.16207885742188 C 5.172229766845703 31.68138885498047 4.907497406005859 31.04311943054199 4.907497406005859 30.36483955383301 C 4.907497406005859 29.68656921386719 5.172229766845703 29.04829978942871 5.652931213378906 28.56760025024414 L 15.31303024291992 18.90749931335449 L 5.652931213378906 9.247398376464844 C 5.172229766845703 8.766708374023438 4.907497406005859 8.128429412841797 4.907497406005859 7.450159072875977 C 4.907497406005859 6.771888732910156 5.172229766845703 6.13361930847168 5.652931213378906 5.652919769287109 C 6.133609771728516 5.172229766845703 6.771879196166992 4.907497406005859 7.450159072875977 4.907497406005859 Z" stroke="none" fill="#fff"/>
  </g>
</svg>
