<svg xmlns="http://www.w3.org/2000/svg" width="42" height="42" viewBox="0 0 42 42">
  <g id="icon_back_to_top_filled-36px" transform="translate(-1767 -770)" opacity="0.711">
    <g id="Ellipse_30" data-name="Ellipse 30" transform="translate(1768 771)" fill="#7c174d" stroke="#7c174d" stroke-width="1">
      <circle cx="20" cy="20" r="20" stroke="none"/>
      <circle cx="20" cy="20" r="20.5" fill="none"/>
    </g>
    <g id="icon_arrow_upward-24px" transform="translate(1776 779)">
      <path id="Path_743" data-name="Path 743" d="M0,0H24V24H0Z" fill="none"/>
      <path id="Path_744" data-name="Path 744" d="M13,19V7.83l4.88,4.88a1.008,1.008,0,0,0,1.42,0,1,1,0,0,0,0-1.41L12.71,4.71a1,1,0,0,0-1.41,0L4.7,11.29A1,1,0,1,0,6.11,12.7L11,7.83V19a1,1,0,0,0,2,0Z" fill="#fff"/>
    </g>
  </g>
</svg>
