<svg id="img_Line_TVBS" xmlns="http://www.w3.org/2000/svg" width="35" height="35" viewBox="0 0 35 35">
  <circle id="Ellipse_9" data-name="Ellipse 9" cx="17.5" cy="17.5" r="17.5" fill="#b87486"/>
  <path id="Path_141" data-name="Path 141" d="M26.989,14.253c0-5.464-5.464-9.953-12.294-9.953C7.962,4.3,2.4,8.691,2.4,14.253c0,4.976,4.391,9.074,10.245,9.855.39.1.976.293,1.073.585a2,2,0,0,1,0,1.073,6.371,6.371,0,0,1-.2,1.073c-.1.293-.293,1.171,1.073.683,1.268-.585,7.123-4.2,9.66-7.123h0A8.806,8.806,0,0,0,26.989,14.253ZM10.4,17.18a.21.21,0,0,1-.2.2H6.693c-.1,0-.1,0-.2-.1h0a.341.341,0,0,1-.1-.2h0V11.813a.21.21,0,0,1,.2-.2h.878a.21.21,0,0,1,.2.2v4.293h2.342a.21.21,0,0,1,.2.2v.878Zm2.049,0a.21.21,0,0,1-.2.2h-.878a.21.21,0,0,1-.2-.2V11.813a.21.21,0,0,1,.2-.2h.878a.21.21,0,0,1,.2.2Zm5.952,0a.21.21,0,0,1-.2.2h-.976l-.1-.1L14.694,13.96v3.22a.21.21,0,0,1-.2.2h-.878a.21.21,0,0,1-.2-.2V11.813a.21.21,0,0,1,.2-.2H14.5l2.439,3.318V11.813a.21.21,0,0,1,.2-.2h.878a.21.21,0,0,1,.2.2V17.18Zm4.684-4.488a.21.21,0,0,1-.2.2H20.549v.878h2.342a.21.21,0,0,1,.2.2v.878a.21.21,0,0,1-.2.2H20.549v.878h2.342a.21.21,0,0,1,.2.2v.878a.21.21,0,0,1-.2.2H19.476c-.1,0-.1,0-.2-.1h0a.341.341,0,0,1-.1-.2h0V11.813h0c0-.1,0-.1.1-.2h0a.341.341,0,0,1,.2-.1h3.415a.21.21,0,0,1,.2.2Z" transform="translate(2.6 1.7)" fill="#fff"/>
</svg>
