<svg id="play_circle_outline_black_24px" xmlns="http://www.w3.org/2000/svg" width="20" height="20" viewBox="0 0 20 20">
  <rect id="Rectangle_16" data-name="Rectangle 16" width="20" height="20" fill="none"/>
  <path id="play_circle_outline_black" d="M9.361,13.627,13.268,10.7a.415.415,0,0,0,0-.669L9.361,7.1a.418.418,0,0,0-.669.335v5.856A.418.418,0,0,0,9.361,13.627ZM10.365,2a8.365,8.365,0,1,0,8.365,8.365A8.368,8.368,0,0,0,10.365,2Zm0,15.057a6.692,6.692,0,1,1,6.692-6.692A6.7,6.7,0,0,1,10.365,17.057Z" transform="translate(-0.327 -0.327)" fill="#fff"/>
</svg>
