<?xml version="1.0" encoding="utf-8"?>
<!-- Generator: Adobe Illustrator 15.0.0, SVG Export Plug-In . SVG Version: 6.00 Build 0)  -->
<!DOCTYPE svg PUBLIC "-//W3C//DTD SVG 1.1//EN" "http://www.w3.org/Graphics/SVG/1.1/DTD/svg11.dtd">
<svg version="1.1" id="圖層_1" xmlns="http://www.w3.org/2000/svg" xmlns:xlink="http://www.w3.org/1999/xlink" x="0px" y="0px"
	 width="143px" height="37.167px" viewBox="0 -13.167 143 37.167" enable-background="new 0 -13.167 143 37.167"
	 xml:space="preserve">
<g id="標題底圖" transform="translate(-87.433 0.001)">
	<path id="Path_105369" fill="#FAEFD0" d="M113.21,0L87.429,24h117.227l25.773-24H113.21z"/>
</g>
<g id="冠軍賽圖標" transform="translate(-581 -555.621)">
	<rect id="Rectangle_3856" x="660.834" y="540.639" fill="none" width="40" height="40"/>
	<g id="Group_3742" transform="translate(584 560.621)">
		<path id="Path_110943" fill="#FF8B17" d="M102.725,13.01c-2.023-0.242-3.695-1.695-4.217-3.666h-4.346
			c-0.521,1.971-2.193,3.426-4.219,3.666c-0.332,0.039-0.582,0.32-0.583,0.654v1.023c-0.001,0.182,0.146,0.33,0.328,0.33
			c0.001,0,0.001,0,0.002,0h13.288c0.182,0,0.33-0.146,0.33-0.33l0,0v-1.023C103.307,13.33,103.057,13.049,102.725,13.01"/>
		<path id="Path_110944" fill="#FF8B17" d="M94.322,7.077h4.025c0.215-2.854,1.75-4.145,3.711-7.386
			c2.359-3.166,3.93-8.236,4.059-14c0.004-0.176-0.063-0.346-0.186-0.473c-0.121-0.127-0.291-0.2-0.467-0.2H87.203
			c-0.178,0-0.346,0.073-0.468,0.2c-0.123,0.127-0.19,0.299-0.187,0.476c0.131,5.772,1.705,10.849,4.072,14.014
			c1.955,3.229,3.487,4.522,3.699,7.371"/>
		<path id="Path_110945" fill="#FF8B17" d="M91.481,7.869c0.009-1.125-0.356-2.223-1.038-3.121c-0.783-0.81-1.813-1.337-2.927-1.5
			c-0.062-0.012-0.12,0.029-0.132,0.09c-0.001,0.008-0.002,0.016-0.002,0.024c-0.002,1.062,0.318,2.098,0.921,2.972
			c0.044,0.058,0.022,0.1-0.05,0.1c-1.06,0.031-2.085,0.385-2.939,1.014c-0.051,0.036-0.063,0.107-0.027,0.158
			c0.004,0.006,0.01,0.012,0.014,0.016c0.792,0.803,1.826,1.322,2.943,1.475c1.127,0.02,2.227-0.336,3.129-1.01
			c0.064-0.053,0.103-0.131,0.107-0.213"/>
		<path id="Path_110946" fill="#FF8B17" d="M86.58,4.75c0.41-0.959,0.491-2.027,0.231-3.037c-0.376-0.974-1.063-1.795-1.956-2.336
			c-0.051-0.035-0.119-0.021-0.154,0.029c-0.004,0.008-0.009,0.016-0.012,0.023c-0.381,0.902-0.48,1.898-0.285,2.857
			c0.02,0.071-0.017,0.101-0.084,0.071c-0.913-0.351-1.911-0.417-2.863-0.19c-0.06,0.012-0.1,0.07-0.088,0.131
			c0.002,0.008,0.005,0.017,0.008,0.025c0.39,0.969,1.089,1.783,1.99,2.313c0.953,0.421,2.02,0.516,3.032,0.267
			C86.479,4.881,86.545,4.825,86.58,4.75"/>
		<path id="Path_110947" fill="#FF8B17" d="M83.309,0.088c0.633-0.65,1.035-1.49,1.145-2.391c0.003-0.906-0.293-1.788-0.842-2.51
			c-0.035-0.05-0.104-0.063-0.152-0.028c-0.008,0.005-0.015,0.011-0.021,0.018c-0.587,0.608-0.979,1.377-1.125,2.21
			c-0.009,0.072-0.053,0.087-0.101,0.036c-0.627-0.566-1.408-0.932-2.246-1.05c-0.059-0.013-0.117,0.024-0.131,0.083
			c-0.002,0.01-0.003,0.021-0.002,0.031c0.01,0.908,0.32,1.786,0.881,2.5c0.64,0.643,1.473,1.058,2.371,1.18
			c0.082,0.008,0.164-0.021,0.224-0.077"/>
		<path id="Path_110948" fill="#FF8B17" d="M81.769-5.049c0.075,0.034,0.161,0.034,0.235,0c0.713-0.353,1.289-0.928,1.643-1.64
			c0.27-0.747,0.287-1.561,0.05-2.318c-0.016-0.059-0.075-0.094-0.135-0.078c-0.009,0.002-0.017,0.005-0.024,0.01
			c-0.656,0.33-1.202,0.846-1.567,1.484c-0.033,0.065-0.079,0.064-0.111,0c-0.351-0.645-0.884-1.172-1.532-1.515
			c-0.053-0.03-0.121-0.013-0.15,0.04c-0.006,0.008-0.009,0.016-0.012,0.025c-0.254,0.752-0.254,1.567,0,2.319
			c0.338,0.719,0.902,1.307,1.606,1.673"/>
		<path id="Path_110949" fill="#FF8B17" d="M82.412-10.034c0.617-0.328,1.111-0.85,1.405-1.485c0.224-0.663,0.224-1.381,0-2.044
			c-0.017-0.058-0.077-0.091-0.135-0.075c-0.009,0.002-0.017,0.006-0.024,0.011c-0.621,0.328-1.117,0.85-1.412,1.486
			c-0.221,0.664-0.219,1.381,0.006,2.043c0.016,0.058,0.076,0.092,0.135,0.075C82.395-10.026,82.404-10.029,82.412-10.034"/>
		<path id="Path_110950" fill="#FF8B17" d="M104.373,6.464c-0.074,0-0.094-0.041-0.049-0.101c0.605-0.871,0.93-1.906,0.932-2.968
			c0.002-0.062-0.045-0.113-0.105-0.116c-0.01,0-0.018,0-0.027,0.002c-2.359,0.195-4.131,2.243-3.982,4.607
			c0.004,0.082,0.041,0.16,0.105,0.213c1.807,1.533,4.508,1.338,6.074-0.439c0.045-0.043,0.047-0.113,0.004-0.158
			c-0.004-0.005-0.012-0.011-0.018-0.015c-0.852-0.633-1.875-0.99-2.936-1.025"/>
		<path id="Path_110951" fill="#FF8B17" d="M111.184,2.23c-0.951-0.231-1.949-0.169-2.863,0.179c-0.068,0.028-0.1,0-0.084-0.072
			c0.201-0.959,0.107-1.955-0.271-2.858c-0.02-0.058-0.084-0.087-0.143-0.065c-0.008,0.003-0.014,0.007-0.021,0.012
			c-0.895,0.537-1.584,1.355-1.965,2.326c-0.264,1.01-0.186,2.076,0.221,3.037c0.035,0.074,0.1,0.13,0.18,0.154
			c2.092,0.654,4.324-0.481,5.025-2.558c0.025-0.056,0.002-0.12-0.053-0.146C111.201,2.234,111.193,2.231,111.184,2.23"/>
		<path id="Path_110952" fill="#FF8B17" d="M112.703-3.56c-0.836,0.116-1.619,0.48-2.248,1.045c-0.053,0.051-0.1,0.036-0.105-0.037
			c-0.143-0.833-0.531-1.604-1.115-2.214c-0.041-0.045-0.111-0.049-0.158-0.008c-0.006,0.005-0.01,0.011-0.016,0.018
			c-0.551,0.72-0.85,1.602-0.852,2.508c0.105,0.901,0.504,1.742,1.137,2.394c0.059,0.057,0.141,0.085,0.223,0.079
			c0.898-0.118,1.732-0.529,2.375-1.171c0.564-0.712,0.877-1.591,0.891-2.5c0.002-0.062-0.045-0.113-0.105-0.117
			C112.721-3.563,112.713-3.563,112.703-3.56"/>
		<path id="Path_110953" fill="#FF8B17" d="M109.152-9.02c-0.053-0.03-0.119-0.011-0.148,0.042c-0.006,0.008-0.01,0.017-0.012,0.025
			c-0.24,0.756-0.227,1.571,0.041,2.318c0.35,0.712,0.924,1.291,1.635,1.645c0.076,0.034,0.16,0.034,0.236,0
			c0.705-0.364,1.271-0.95,1.611-1.667c0.256-0.751,0.26-1.566,0.008-2.319c-0.018-0.059-0.078-0.092-0.137-0.076
			c-0.008,0.002-0.016,0.006-0.023,0.01c-0.65,0.341-1.188,0.866-1.541,1.509c-0.031,0.065-0.078,0.066-0.111,0
			c-0.363-0.639-0.904-1.156-1.561-1.487"/>
		<path id="Path_110954" fill="#FF8B17" d="M110.279-9.979c0.053,0.031,0.121,0.013,0.15-0.039c0.006-0.007,0.008-0.016,0.012-0.024
			c0.227-0.661,0.23-1.378,0.014-2.043c-0.291-0.636-0.783-1.16-1.4-1.49c-0.053-0.031-0.119-0.014-0.148,0.038
			c-0.006,0.008-0.01,0.016-0.012,0.025c-0.227,0.662-0.232,1.379-0.014,2.044c0.293,0.636,0.783,1.16,1.4,1.49"/>
		<path id="Path_110955" fill="#FFFFFF" d="M92.834-8.133l2.261-0.434c0.041-0.009,0.077-0.034,0.1-0.07l1.106-2.016
			c0.018-0.031,0.046-0.031,0.063,0l1.112,2.017c0.023,0.035,0.059,0.06,0.1,0.07l2.26,0.434c0.037,0.006,0.045,0.034,0.021,0.061
			l-1.578,1.678c-0.027,0.031-0.039,0.072-0.037,0.113l0.287,2.284c0,0.036-0.02,0.053-0.051,0.037l-2.085-0.977
			c-0.038-0.016-0.081-0.016-0.12,0L94.19-3.958c-0.032,0.015-0.056,0-0.051-0.037l0.284-2.281c0.004-0.041-0.01-0.082-0.036-0.113
			l-1.573-1.687C92.789-8.099,92.801-8.126,92.834-8.133"/>
	</g>
</g>
</svg>
