<svg xmlns="http://www.w3.org/2000/svg" xmlns:xlink="http://www.w3.org/1999/xlink" width="89" height="47" viewBox="0 0 89 47">
  <defs>
    <clipPath id="clip-path">
      <rect id="Rectangle_2881" data-name="Rectangle 2881" width="89" height="47" fill="none"/>
    </clipPath>
  </defs>
  <g id="TVBS_Logo" transform="translate(0 -0.193)">
    <g id="Group_2144" data-name="Group 2144" transform="translate(0 0.193)" clip-path="url(#clip-path)">
      <path id="Path_98851" data-name="Path 98851" d="M46.54,1.586a1.95,1.95,0,0,1,3.832,0,1.95,1.95,0,0,1-3.832,0" transform="translate(8.83 -0.156)" fill="#e3dfcf"/>
      <path id="Path_98852" data-name="Path 98852" d="M51.015,1.586a1.951,1.951,0,0,1,3.833,0,1.951,1.951,0,0,1-3.833,0" transform="translate(9.679 -0.156)" fill="#e3dfcf"/>
      <path id="Path_98853" data-name="Path 98853" d="M55.489,1.586a1.951,1.951,0,0,1,3.833,0,1.951,1.951,0,0,1-3.833,0" transform="translate(10.527 -0.156)" fill="#e3dfcf"/>
      <path id="Path_98854" data-name="Path 98854" d="M59.965,1.586a1.95,1.95,0,0,1,3.832,0,1.95,1.95,0,0,1-3.832,0" transform="translate(11.377 -0.156)" fill="#e3dfcf"/>
      <path id="Path_98855" data-name="Path 98855" d="M49.493,5.593a1.95,1.95,0,0,1,3.832,0,1.95,1.95,0,0,1-3.832,0" transform="translate(9.39 0.561)" fill="#e3dfcf"/>
      <path id="Path_98856" data-name="Path 98856" d="M53.968,5.593a1.951,1.951,0,0,1,3.833,0,1.951,1.951,0,0,1-3.833,0" transform="translate(10.239 0.561)" fill="#e3dfcf"/>
      <path id="Path_98857" data-name="Path 98857" d="M58.443,5.593a1.951,1.951,0,0,1,3.833,0,1.951,1.951,0,0,1-3.833,0" transform="translate(11.088 0.561)" fill="#e3dfcf"/>
      <path id="Path_98858" data-name="Path 98858" d="M62.918,5.593a1.95,1.95,0,0,1,3.832,0,1.95,1.95,0,0,1-3.832,0" transform="translate(11.937 0.561)" fill="#e3dfcf"/>
      <path id="Path_98859" data-name="Path 98859" d="M52.447,9.6a1.95,1.95,0,0,1,3.832,0,1.95,1.95,0,0,1-3.832,0" transform="translate(9.95 1.277)" fill="#e3dfcf"/>
      <path id="Path_98860" data-name="Path 98860" d="M56.922,9.6a1.951,1.951,0,0,1,3.833,0,1.951,1.951,0,0,1-3.833,0" transform="translate(10.799 1.277)" fill="#e3dfcf"/>
      <path id="Path_98861" data-name="Path 98861" d="M61.4,9.6a1.952,1.952,0,0,1,3.834,0,1.952,1.952,0,0,1-3.834,0" transform="translate(11.648 1.277)" fill="#e3dfcf"/>
      <path id="Path_98862" data-name="Path 98862" d="M65.871,9.6a1.951,1.951,0,0,1,3.833,0,1.951,1.951,0,0,1-3.833,0" transform="translate(12.497 1.277)" fill="#e3dfcf"/>
      <path id="Path_98863" data-name="Path 98863" d="M59.875,13.6a1.95,1.95,0,0,1,3.832,0,1.95,1.95,0,0,1-3.832,0" transform="translate(11.359 1.994)" fill="#e3dfcf"/>
      <path id="Path_98864" data-name="Path 98864" d="M64.35,13.6a1.951,1.951,0,0,1,3.833,0,1.951,1.951,0,0,1-3.833,0" transform="translate(12.208 1.994)" fill="#e3dfcf"/>
      <path id="Path_98865" data-name="Path 98865" d="M68.825,13.6a1.951,1.951,0,0,1,3.833,0,1.951,1.951,0,0,1-3.833,0" transform="translate(13.057 1.994)" fill="#e3dfcf"/>
      <path id="Path_98866" data-name="Path 98866" d="M58.354,17.611a1.95,1.95,0,0,1,3.832,0,1.95,1.95,0,0,1-3.832,0" transform="translate(11.071 2.711)" fill="#e3dfcf"/>
      <path id="Path_98867" data-name="Path 98867" d="M62.828,17.611a1.95,1.95,0,0,1,3.832,0,1.95,1.95,0,0,1-3.832,0" transform="translate(11.92 2.711)" fill="#e3dfcf"/>
      <path id="Path_98868" data-name="Path 98868" d="M67.3,17.611a1.951,1.951,0,0,1,3.833,0,1.951,1.951,0,0,1-3.833,0" transform="translate(12.769 2.711)" fill="#e3dfcf"/>
      <path id="Path_98869" data-name="Path 98869" d="M71.778,17.611a1.951,1.951,0,0,1,3.833,0,1.951,1.951,0,0,1-3.833,0" transform="translate(13.618 2.711)" fill="#e3dfcf"/>
      <path id="Path_98870" data-name="Path 98870" d="M46.54,33.635a1.95,1.95,0,0,0,3.832,0,1.95,1.95,0,0,0-3.832,0" transform="translate(8.83 5.578)" fill="#e3dfcf"/>
      <path id="Path_98871" data-name="Path 98871" d="M51.015,33.635a1.951,1.951,0,0,0,3.833,0,1.951,1.951,0,0,0-3.833,0" transform="translate(9.679 5.578)" fill="#e3dfcf"/>
      <path id="Path_98872" data-name="Path 98872" d="M55.489,33.635a1.951,1.951,0,0,0,3.833,0,1.951,1.951,0,0,0-3.833,0" transform="translate(10.527 5.578)" fill="#e3dfcf"/>
      <path id="Path_98873" data-name="Path 98873" d="M59.965,33.635a1.95,1.95,0,0,0,3.832,0,1.95,1.95,0,0,0-3.832,0" transform="translate(11.377 5.578)" fill="#e3dfcf"/>
      <path id="Path_98874" data-name="Path 98874" d="M49.493,29.629a1.95,1.95,0,0,0,3.832,0,1.95,1.95,0,0,0-3.832,0" transform="translate(9.39 4.861)" fill="#e3dfcf"/>
      <path id="Path_98875" data-name="Path 98875" d="M53.968,29.629a1.951,1.951,0,0,0,3.833,0,1.951,1.951,0,0,0-3.833,0" transform="translate(10.239 4.861)" fill="#e3dfcf"/>
      <path id="Path_98876" data-name="Path 98876" d="M58.443,29.629a1.951,1.951,0,0,0,3.833,0,1.951,1.951,0,0,0-3.833,0" transform="translate(11.088 4.861)" fill="#e3dfcf"/>
      <path id="Path_98877" data-name="Path 98877" d="M62.918,29.629a1.95,1.95,0,0,0,3.832,0,1.95,1.95,0,0,0-3.832,0" transform="translate(11.937 4.861)" fill="#e3dfcf"/>
      <path id="Path_98878" data-name="Path 98878" d="M56.922,25.623a1.951,1.951,0,0,0,3.833,0,1.951,1.951,0,0,0-3.833,0" transform="translate(10.799 4.144)" fill="#e3dfcf"/>
      <path id="Path_98879" data-name="Path 98879" d="M61.4,25.623a1.952,1.952,0,0,0,3.834,0,1.952,1.952,0,0,0-3.834,0" transform="translate(11.648 4.144)" fill="#e3dfcf"/>
      <path id="Path_98880" data-name="Path 98880" d="M65.871,25.623a1.951,1.951,0,0,0,3.833,0,1.951,1.951,0,0,0-3.833,0" transform="translate(12.497 4.144)" fill="#e3dfcf"/>
      <path id="Path_98881" data-name="Path 98881" d="M59.875,21.616a1.95,1.95,0,0,0,3.832,0,1.95,1.95,0,0,0-3.832,0" transform="translate(11.359 3.427)" fill="#e3dfcf"/>
      <path id="Path_98882" data-name="Path 98882" d="M64.35,21.616a1.951,1.951,0,0,0,3.833,0,1.951,1.951,0,0,0-3.833,0" transform="translate(12.208 3.427)" fill="#e3dfcf"/>
      <path id="Path_98883" data-name="Path 98883" d="M68.825,21.616a1.951,1.951,0,0,0,3.833,0,1.951,1.951,0,0,0-3.833,0" transform="translate(13.057 3.427)" fill="#e3dfcf"/>
      <path id="Path_98884" data-name="Path 98884" d="M61.192,12.392H61.13v0H52.4a6.6,6.6,0,0,0-.716.071A6.321,6.321,0,0,0,46.35,17.7a4.569,4.569,0,0,0,.027,1.272,3.944,3.944,0,0,0,3.861,3.461,5.348,5.348,0,0,0,.6.025v0h3.274l.007.006a2.181,2.181,0,0,1,.33.007,1.585,1.585,0,0,1,1.553,1.392,1.828,1.828,0,0,1,.011.512,2.7,2.7,0,0,1-2.5,2.126l-.253.02h-8.51l-.683,2.157-.006.014-.136.434-.062.2h0l-.026.09a.055.055,0,0,0,.055.078h9.716a6.426,6.426,0,0,0,6.045-5.311,4.609,4.609,0,0,0-.026-1.271,3.944,3.944,0,0,0-3.862-3.461,5.84,5.84,0,0,0-.679-.025h-3.2l-.007-.007a1.906,1.906,0,0,1-.33-.008,1.584,1.584,0,0,1-1.553-1.391,1.867,1.867,0,0,1-.011-.51,2.447,2.447,0,0,1,2.333-2.051c.083,0,.165-.012.252-.019h7.728l.884-2.8.015-.05.03-.092.01-.032a.056.056,0,0,0-.055-.079" transform="translate(8.317 2.061)" fill="#e3dfcf"/>
      <path id="Path_98885" data-name="Path 98885" d="M13.767,15.975h-.328a.214.214,0,0,1-.142-.041.119.119,0,0,1-.014-.133l0-.006L14.3,13.98a1.878,1.878,0,0,1,.349-.474,2.367,2.367,0,0,1,1.407-.67v0a15.661,15.661,0,0,1,1.933-.092l0,0h9.941l1.045-3.362.075-.24A.057.057,0,0,0,29,9.055H9.657l-.01.006a32.5,32.5,0,0,0-4,.19v.009a4.9,4.9,0,0,0-2.914,1.386,3.859,3.859,0,0,0-.72.98l-1.94,3.6-.012.027a.565.565,0,0,0,.068.63.987.987,0,0,0,.675.2H9.269L5.789,27.3l-.008.039a1.981,1.981,0,0,0,.587,1.979,2.69,2.69,0,0,0,1.911.778h6.485l4.381-14.121Z" transform="translate(0 1.464)" fill="#e3dfcf"/>
      <path id="Path_98886" data-name="Path 98886" d="M47.6,21.009a3.576,3.576,0,0,0-.528-.33c-.1-.052-.2-.1-.3-.146a5.144,5.144,0,0,0,2.5-3.256,4.338,4.338,0,0,0,.061-1.395,4.316,4.316,0,0,0-4.212-3.461c-.22-.021-.681-.027-.681-.027l-8.685,0c-1.125,0-1.253-.048-1.877.618-.137.145-.237.27-.237.27L20.782,26.742a.365.365,0,0,1-.165.083.188.188,0,0,1-.19-.179l3.481-11.268H20.2l-4.12,13.315,0,.006-.224.724a.057.057,0,0,0,.056.08h7.21l12.659-14.07h8.039s.37,0,.477.013a1.586,1.586,0,0,1,1.553,1.392,1.867,1.867,0,0,1,.011.51c-.13,1.115-1.674,2.068-2.848,2.128-.083,0-.167.012-.253.019H40.584l-.937,2.97H43.3l.007.006a2.194,2.194,0,0,1,.331.008,1.516,1.516,0,0,1,1.482,1.391,1.877,1.877,0,0,1,.011.512,2.7,2.7,0,0,1-2.5,2.128c-.083,0-.165.012-.252.019H37.107l2.927-9.419H36L32.2,29.344l-.024.074a.057.057,0,0,0,.056.079H42.8c.035,0,.728,0,.859-.011,2.972-.139,5.485-2.354,5.61-4.948a3.991,3.991,0,0,0-.119-1.188A3.926,3.926,0,0,0,47.6,21.009" transform="translate(3.006 2.06)" fill="#e3dfcf"/>
      <path id="Path_98887" data-name="Path 98887" d="M9.349,36.091,8.1,36.42a22.732,22.732,0,0,1,.81,2.6l1.274-.486a24.581,24.581,0,0,0-.84-2.447" transform="translate(1.538 6.301)" fill="#e3dfcf"/>
      <path id="Path_98888" data-name="Path 98888" d="M9.349,36.091,8.1,36.42a22.732,22.732,0,0,1,.81,2.6l1.274-.486a24.581,24.581,0,0,0-.84-2.447" transform="translate(1.538 6.301)" fill="#e3dfcf"/>
      <path id="Path_98889" data-name="Path 98889" d="M5.416,36.164a10.6,10.6,0,0,1-1.3,3.292l1.259.788A13.923,13.923,0,0,0,6.777,36.45Z" transform="translate(0.78 6.314)" fill="#e3dfcf"/>
      <path id="Path_98890" data-name="Path 98890" d="M5.416,36.164a10.6,10.6,0,0,1-1.3,3.292l1.259.788A13.923,13.923,0,0,0,6.777,36.45Z" transform="translate(0.78 6.314)" fill="#e3dfcf"/>
      <path id="Path_98891" data-name="Path 98891" d="M12.247,30.871a16.168,16.168,0,0,0,4.082-.73L15.592,28.8a13.949,13.949,0,0,1-4.806.858v6.21A9.14,9.14,0,0,1,9.467,40.8l1.085,1.131a10.989,10.989,0,0,0,1.7-6.068V34.505h1.562v7.455H15.3V34.505h1.33V33.088H12.247Z" transform="translate(1.796 4.996)" fill="#e3dfcf"/>
      <path id="Path_98892" data-name="Path 98892" d="M12.247,30.871a16.168,16.168,0,0,0,4.082-.73L15.592,28.8a13.949,13.949,0,0,1-4.806.858v6.21A9.14,9.14,0,0,1,9.467,40.8l1.085,1.131a10.989,10.989,0,0,0,1.7-6.068V34.505h1.562v7.455H15.3V34.505h1.33V33.088H12.247Z" transform="translate(1.796 4.996)" fill="#e3dfcf"/>
      <path id="Path_98893" data-name="Path 98893" d="M10.962,35.2H8.588V34.037h2.621V32.678H9.8c.188-.416.362-.859.535-1.346l-1.347-.473a17.933,17.933,0,0,1-.564,1.819H7.154a16.471,16.471,0,0,0-.622-1.819l-1.331.5a8.564,8.564,0,0,1,.608,1.317H4.332v1.359H7.083V35.2H4.563v1.36h2.52v3.392c0,.272-.174.414-.493.414a2.369,2.369,0,0,1-.594-.1l.333,1.375h.753c1,0,1.5-.444,1.5-1.33v-3.75h2.375Z" transform="translate(0.822 5.365)" fill="#e3dfcf"/>
      <path id="Path_98894" data-name="Path 98894" d="M10.962,35.2H8.588V34.037h2.621V32.678H9.8c.188-.416.362-.859.535-1.346l-1.347-.473a17.933,17.933,0,0,1-.564,1.819H7.154a16.471,16.471,0,0,0-.622-1.819l-1.331.5a8.564,8.564,0,0,1,.608,1.317H4.332v1.359H7.083V35.2H4.563v1.36h2.52v3.392c0,.272-.174.414-.493.414a2.369,2.369,0,0,1-.594-.1l.333,1.375h.753c1,0,1.5-.444,1.5-1.33v-3.75h2.375Z" transform="translate(0.822 5.365)" fill="#e3dfcf"/>
      <path id="Path_98895" data-name="Path 98895" d="M11.1,29.835H8.464c-.174-.457-.333-.874-.507-1.245l-1.563.257a8.24,8.24,0,0,1,.565.988H4.453v1.373H11.1Z" transform="translate(0.845 4.959)" fill="#e3dfcf"/>
      <path id="Path_98896" data-name="Path 98896" d="M11.1,29.835H8.464c-.174-.457-.333-.874-.507-1.245l-1.563.257a8.24,8.24,0,0,1,.565.988H4.453v1.373H11.1Z" transform="translate(0.845 4.959)" fill="#e3dfcf"/>
      <path id="Path_98897" data-name="Path 98897" d="M27.122,37.949c-.376.028-.753.071-1.158.1V34.571h1.273V33.312H19.42v1.259h1.042v3.807c-.362,0-.738.014-1.115.042l.174,1.3c1.811-.086,3.5-.186,5.082-.315v1.331h1.361V39.294l1.158-.116Zm-2.519.2c-.868.058-1.8.1-2.78.158V37.69H24.6Zm0-1.488H21.824V36.1H24.6Zm0-1.56H21.824v-.529H24.6Z" transform="translate(3.671 5.803)" fill="#e3dfcf"/>
      <path id="Path_98898" data-name="Path 98898" d="M27.122,37.949c-.376.028-.753.071-1.158.1V34.571h1.273V33.312H19.42v1.259h1.042v3.807c-.362,0-.738.014-1.115.042l.174,1.3c1.811-.086,3.5-.186,5.082-.315v1.331h1.361V39.294l1.158-.116Zm-2.519.2c-.868.058-1.8.1-2.78.158V37.69H24.6Zm0-1.488H21.824V36.1H24.6Zm0-1.56H21.824v-.529H24.6Z" transform="translate(3.671 5.803)" fill="#e3dfcf"/>
      <path id="Path_98899" data-name="Path 98899" d="M23.144,33.495h4.227V40.02c0,.343-.173.529-.491.529-.363,0-.753-.028-1.187-.071l.347,1.316c.449.029.913.058,1.375.058.97,0,1.462-.457,1.462-1.373V29.087H23.144ZM24.65,30.2h2.722v.543H24.65Zm0,1.546h2.722v.658H24.65Z" transform="translate(4.391 5.048)" fill="#e3dfcf"/>
      <path id="Path_98900" data-name="Path 98900" d="M23.144,33.495h4.227V40.02c0,.343-.173.529-.491.529-.363,0-.753-.028-1.187-.071l.347,1.316c.449.029.913.058,1.375.058.97,0,1.462-.457,1.462-1.373V29.087H23.144ZM24.65,30.2h2.722v.543H24.65Zm0,1.546h2.722v.658H24.65Z" transform="translate(4.391 5.048)" fill="#e3dfcf"/>
      <path id="Path_98901" data-name="Path 98901" d="M23.239,29.087h-5.79V41.88h1.506v-8.4h4.284Zm-1.5,3.306H18.955v-.644h2.779Zm0-1.646H18.955v-.572h2.779Z" transform="translate(3.31 5.048)" fill="#e3dfcf"/>
      <path id="Path_98902" data-name="Path 98902" d="M23.239,29.087h-5.79V41.88h1.506v-8.4h4.284Zm-1.5,3.306H18.955v-.644h2.779Zm0-1.646H18.955v-.572h2.779Z" transform="translate(3.31 5.048)" fill="#e3dfcf"/>
      <path id="Path_98903" data-name="Path 98903" d="M31.89,33.964a11.62,11.62,0,0,1-1.3,1.975,1.617,1.617,0,0,1-.622.387l.363,1.231a18.055,18.055,0,0,0,3.213-.687l.117.615,1.114-.272a25.572,25.572,0,0,0-.709-2.919l-1.071.344c.115.371.217.772.319,1.2q-.717.172-1.434.3A33.5,33.5,0,0,0,34.685,31.5l-1.3-.487c-.289.6-.564,1.16-.824,1.689l-1.072.172a21.941,21.941,0,0,0,1.81-3.706l-1.375-.545a25.469,25.469,0,0,1-1.39,3.764,1.416,1.416,0,0,1-.608.529l.362,1.3q.826-.129,1.607-.258" transform="translate(5.677 4.965)" fill="#e3dfcf"/>
      <path id="Path_98904" data-name="Path 98904" d="M31.89,33.964a11.62,11.62,0,0,1-1.3,1.975,1.617,1.617,0,0,1-.622.387l.363,1.231a18.055,18.055,0,0,0,3.213-.687l.117.615,1.114-.272a25.572,25.572,0,0,0-.709-2.919l-1.071.344c.115.371.217.772.319,1.2q-.717.172-1.434.3A33.5,33.5,0,0,0,34.685,31.5l-1.3-.487c-.289.6-.564,1.16-.824,1.689l-1.072.172a21.941,21.941,0,0,0,1.81-3.706l-1.375-.545a25.469,25.469,0,0,1-1.39,3.764,1.416,1.416,0,0,1-.608.529l.362,1.3q.826-.129,1.607-.258" transform="translate(5.677 4.965)" fill="#e3dfcf"/>
      <path id="Path_98905" data-name="Path 98905" d="M39.815,38.571V37.454h-2.4V35.88h2.664V34.621h-1.52c-.115-.473-.217-.9-.332-1.273l-1.26.2a9.326,9.326,0,0,1,.39,1.073H35.616V35.88h.608v2.69Z" transform="translate(6.757 5.81)" fill="#e3dfcf"/>
      <path id="Path_98906" data-name="Path 98906" d="M39.815,38.571V37.454h-2.4V35.88h2.664V34.621h-1.52c-.115-.473-.217-.9-.332-1.273l-1.26.2a9.326,9.326,0,0,1,.39,1.073H35.616V35.88h.608v2.69Z" transform="translate(6.757 5.81)" fill="#e3dfcf"/>
      <path id="Path_98907" data-name="Path 98907" d="M34.427,39.8a19.239,19.239,0,0,0-.753-2.233l-.955.33a22.438,22.438,0,0,1,.681,2.532l1.028-.472v1.817H35.8V30.428h5.169V39.9c0,.329-.131.5-.377.5l-1.766-.044.376,1.317h1.824c.884,0,1.332-.487,1.332-1.459v-11.1H34.427Z" transform="translate(6.207 5.052)" fill="#e3dfcf"/>
      <path id="Path_98908" data-name="Path 98908" d="M34.427,39.8a19.239,19.239,0,0,0-.753-2.233l-.955.33a22.438,22.438,0,0,1,.681,2.532l1.028-.472v1.817H35.8V30.428h5.169V39.9c0,.329-.131.5-.377.5l-1.766-.044.376,1.317h1.824c.884,0,1.332-.487,1.332-1.459v-11.1H34.427Z" transform="translate(6.207 5.052)" fill="#e3dfcf"/>
      <path id="Path_98909" data-name="Path 98909" d="M31.49,36.855q.239,1.287.391,2.961l1.2-.271c-.158-1.059-.347-2.032-.55-2.919Z" transform="translate(5.974 6.396)" fill="#e3dfcf"/>
      <path id="Path_98910" data-name="Path 98910" d="M31.49,36.855q.239,1.287.391,2.961l1.2-.271c-.158-1.059-.347-2.032-.55-2.919Z" transform="translate(5.974 6.396)" fill="#e3dfcf"/>
      <path id="Path_98911" data-name="Path 98911" d="M29.847,39.977l1.2.373a18.369,18.369,0,0,0,.463-3.506l-1.172-.158a14.517,14.517,0,0,1-.493,3.292" transform="translate(5.663 6.407)" fill="#e3dfcf"/>
      <path id="Path_98912" data-name="Path 98912" d="M29.847,39.977l1.2.373a18.369,18.369,0,0,0,.463-3.506l-1.172-.158a14.517,14.517,0,0,1-.493,3.292" transform="translate(5.663 6.407)" fill="#e3dfcf"/>
      <path id="Path_98913" data-name="Path 98913" d="M35.543,33.721h4.618V32.462h-.984a8.276,8.276,0,0,0,.521-1.746l-1.217-.172a10.746,10.746,0,0,1-.434,1.918H36.918l.695-.315a12.467,12.467,0,0,0-.695-1.546l-1.042.357a10.527,10.527,0,0,1,.666,1.5h-1Z" transform="translate(6.743 5.308)" fill="#e3dfcf"/>
      <path id="Path_98914" data-name="Path 98914" d="M35.543,33.721h4.618V32.462h-.984a8.276,8.276,0,0,0,.521-1.746l-1.217-.172a10.746,10.746,0,0,1-.434,1.918H36.918l.695-.315a12.467,12.467,0,0,0-.695-1.546l-1.042.357a10.527,10.527,0,0,1,.666,1.5h-1Z" transform="translate(6.743 5.308)" fill="#e3dfcf"/>
    </g>
  </g>
</svg>
